<?xml version="1.0"?>
<svg xmlns="http://www.w3.org/2000/svg" xmlns:xlink="http://www.w3.org/1999/xlink" version="1.1" id="Capa_1" x="0px" y="0px" viewBox="0 0 61.451 61.451" style="enable-background:new 0 0 61.451 61.451;" xml:space="preserve" width="512px" height="512px"><g><g>
	<path d="M33.897,3.274c1.173,2.583,2.251,4.956,3.528,7.768c1.509-3.693,1.957-7.164,3.649-10.274   c2.907,1.476,5.595,2.896,8.331,4.217c2.74,1.324,5.526,2.551,8.522,3.927c-0.094,0.908-0.059,1.906-0.319,2.821   c-0.745,2.622-1.554,5.228-2.446,7.803c-0.529,1.526-0.449,2.843,0.417,4.248c1.606,2.606,3.078,5.294,4.591,7.956   c0.441,0.778,0.832,1.585,1.281,2.447c-1.817,1.854-4.397,0.881-6.537,2.149c-0.109,0.942-0.356,2.074-0.353,3.206   c0.015,5.05,0.079,10.1,0.174,15.149c0.036,1.892-0.24,2.365-2.053,2.563c-2.139,0.234-4.299,0.29-6.427,0.587   c-6.477,0.905-12.939,1.907-19.416,2.813c-0.656,0.092-1.484-0.023-2.034-0.363c-4.08-2.521-8.115-5.113-12.15-7.705   c-1.037-0.666-1.58-1.583-1.557-2.903c0.046-2.649,0.04-5.303-0.086-7.948c-0.113-2.394-0.379-4.783-0.645-7.167   c-0.134-1.195-0.65-2.113-1.881-2.678c-2.101-0.965-4.14-2.076-6.153-3.217C1.509,28.205,0.819,27.5,0,26.849   c2.061-2.902,4.739-4.754,7.181-6.827c4.163-3.532,3.632-2.291,1.978-7.064c-0.487-1.406-1.121-2.76-1.614-4.163   C7.024,7.311,7.383,6.693,8.898,6.282c0.476-0.129,0.962-0.244,1.451-0.297c4.679-0.508,9.359-1.011,14.04-1.495   c1.233-0.127,2.483-0.119,3.711-0.284C30.032,3.945,31.951,3.591,33.897,3.274z M25.39,20.687   c-0.154,0.656-0.308,1.311-0.462,1.967c1.08-0.921,1.752-2.025,2.526-3.052c0.711-0.943,1.104-2.235,2.504-2.496   c-1.321,2.072-2.641,4.144-3.961,6.215c0.166,0.129,0.332,0.259,0.497,0.389c1.12-1.171,2.24-2.342,3.361-3.514   c-0.016,1.325-1.792,2.044-1.298,3.899c0.686-1.082,1.204-1.903,1.726-2.72c0.576-0.901,1.085-1.857,1.756-2.682   c0.576-0.708,1.03-1.397,0.96-2.345c-1.069,1.305-2.138,2.609-3.208,3.914c0.438-1.147,0.875-2.294,1.434-3.757   c-0.646,0.319-0.983,0.485-1.327,0.659c-0.886-0.818-1.575-0.531-2.214,0.349c-0.619,0.851-1.291,1.664-1.939,2.494   c-0.003-0.326-0.005-0.653-0.012-1.473c-0.668,0.839-1.068,1.341-1.724,2.164C24.773,20.692,25.082,20.689,25.39,20.687z    M33.751,20.403c-0.53-1.851,1.792-2.593,1.752-4.725c-2.052,2.872-4.238,5.153-5.835,8.423c1.075-0.452,1.656-0.696,2.237-0.94   c1.088,0.818,1.868,0.185,2.409-0.666c1.055-1.661,2.007-3.388,2.958-5.112c0.232-0.42,0.293-0.935,0.434-1.406   c-0.11-0.047-0.221-0.094-0.331-0.141C36.167,17.359,34.959,18.881,33.751,20.403z M15.261,38.8   c-0.641-0.047-1.281-0.095-2.028-0.15c0.03,3.54,0.091,6.977,0.069,10.413c-0.008,1.182,0.654,1.742,1.539,2.285   c1.84,1.127,4.048,1.693,5.42,3.556c0.142,0.193,0.605,0.15,0.919,0.217c1.226,1.162,2.531,2.181,4.803,2.729   c-0.767-0.916-1.159-1.383-1.55-1.851c1.849-0.014,1.019-1.168,1.023-1.687c-2.264-1.152-4.263-2.169-6.262-3.186l-0.038,0.047   c1.346,0.368,2.684,0.768,4.041,1.088c0.748,0.177,1.527,0.219,2.221,0.313c0.633-1.836-0.077-2.602-1.47-3.08   c-2.171-0.745-4.312-1.578-6.466-2.374c0.045-0.149,0.089-0.299,0.133-0.449c2.616,0.707,5.232,1.413,7.822,2.112   c0.438-1.549-0.301-2.12-1.289-2.57c-1.841-0.838-3.67-1.702-5.504-2.555l-0.035,0.041c2.323,0.583,4.645,1.167,6.977,1.753   c0.263-2.175,0.244-2.13-1.544-2.905c-1.694-0.735-3.342-1.576-5.011-2.37c2.12,0.462,4.24,0.924,6.326,1.379   c0.507-1.377,0.144-2.037-0.969-2.58c-3.659-1.787-7.464-3.089-11.663-3.844c0.148,0.918,0.287,1.772,0.401,2.479   C13.969,38.082,14.615,38.441,15.261,38.8z M33.082,55.212c0.026,0.105,0.051,0.211,0.077,0.316   c-0.827,0.284-1.65,0.577-2.48,0.849c-0.89,0.292-1.927,0.361-2.495,1.931c8.288-1.159,16.242-2.271,24.29-3.396   c-0.052-6.196-0.102-12.215-0.155-18.478c-6.529,1.329-12.889,2.081-19.13,2.814c-1.803-2.992-2.593-6.238-5.1-9.021   c0.019,2.301,0.034,4.066,0.048,5.788c0.949,0.147,1.702,0.265,2.455,0.382c0.004,0.144,0.009,0.288,0.013,0.432   c-0.814,0.243-1.628,0.485-2.438,0.727c-0.766,1.749,1.001,1.397,2.1,2.104c-1.74,0.415-2.954,0.972-1.945,2.791   c0.68-0.005,1.401-0.012,2.123-0.018c0.009,0.106,0.018,0.213,0.027,0.319c-0.803,0.338-1.607,0.674-2.493,1.046   c0.086,0.73,0.16,1.354,0.25,2.113c1.588-0.156,3.025-0.297,4.462-0.438c-1.026,0.646-2.125,0.867-3.188,1.203   c-1.532,0.484-1.558,0.597-1.174,2.641c1.389-0.077,2.795-0.154,4.201-0.232c-1.044,0.699-2.12,1.096-3.224,1.391   c-1.381,0.369-1.616,1.192-1.153,2.464c1.643-0.299,3.216-0.586,4.789-0.873c-0.909,0.739-1.906,1.096-2.911,1.427   c-1.062,0.35-2.316,0.505-2.038,2.426C29.758,55.674,31.42,55.443,33.082,55.212z M58.414,32.999   c-1.848-3.21-3.433-6.088-5.176-8.867c-0.286-0.456-1.28-0.682-1.932-0.656c-2.645,0.106-5.301,0.221-7.92,0.575   c-4.818,0.65-9.613,1.472-14.438,2.225c0.039,0.425-0.014,0.71,0.096,0.904c1.581,2.81,3.135,5.64,4.828,8.382   c0.309,0.5,1.201,0.863,1.841,0.888c1.132,0.046,2.28-0.197,3.417-0.352c4.253-0.58,8.512-1.132,12.755-1.779   C53.897,34.013,55.88,33.519,58.414,32.999z M9.84,8.293c0.829,2.401,1.476,4.412,2.221,6.386c0.57,1.51,1.081,1.743,2.631,1.56   c4.827-0.569,9.66-1.093,14.481-1.703c2.166-0.273,4.313-0.708,6.638-1.098c-0.985-2.772-1.885-5.285-3.112-7.358   C24.98,6.828,17.619,7.54,9.84,8.293z M24.742,25.614c-4.167-2.059-8.074-3.964-11.953-5.926c-0.79-0.399-1.428-0.313-2.045,0.208   C8.246,22.01,5.76,24.14,3.036,26.463c4.484,2.535,8.606,4.864,12.924,7.304C18.512,30.813,21.99,28.827,24.742,25.614z    M39.245,13.106c4.593,2.064,9.067,4.075,13.817,6.21c0.93-3.121,1.788-5.998,2.709-9.089c-4.681-2.17-9.124-4.231-13.765-6.383   C41.021,7.148,40.136,10.116,39.245,13.106z M17.909,35.696c2.599,0.865,5.093,1.694,7.618,2.534   c0.435-1.383,0.486-2.225-0.889-2.627c-1.179-0.345-2.287-0.927-3.436-1.383C19.444,33.523,19.44,33.53,17.909,35.696z    M20.31,33.275c1.844,0.345,3.56,0.666,5.303,0.992c0.626-2.116-0.754-2.306-1.879-2.679C21.997,31.012,21.994,31.022,20.31,33.275   z M23.302,30.046c0.047,0.167,0.094,0.334,0.141,0.502c0.711,0.086,1.422,0.172,2.31,0.279c-0.008-0.984-0.014-1.647-0.023-2.71   C24.729,28.912,24.016,29.479,23.302,30.046z M37.322,19.294c-0.823,1.085-1.962,1.996-2.093,3.862   C36.766,22.047,37.447,20.893,37.322,19.294z M21.254,21.723c1.594-0.82,2.19-1.876,2.538-3.661   C22.581,19.245,21.466,19.94,21.254,21.723z M41.418,21.484c0.216,0.119,0.432,0.238,0.647,0.357   c0.719-1.193,1.438-2.387,2.156-3.58c-0.166-0.1-0.332-0.199-0.498-0.299C42.955,19.136,42.187,20.31,41.418,21.484z    M49.978,21.168c-1.078-1.196-1.078-1.196-2.127-0.23C48.685,21.028,49.331,21.098,49.978,21.168z M46.613,19.351   c-0.206-0.112-0.412-0.224-0.618-0.336c-0.45,0.766-0.9,1.532-1.517,2.581C46.282,21.339,46.12,20.112,46.613,19.351z    M19.93,18.471c-0.131-0.137-0.263-0.275-0.394-0.413c-0.36,0.437-0.721,0.873-1.081,1.309c0.095,0.087,0.19,0.174,0.284,0.261   C19.137,19.243,19.533,18.857,19.93,18.471z M21.279,19.286c-0.124-0.104-0.247-0.207-0.37-0.311   c-0.267,0.385-0.535,0.77-0.802,1.155c0.102,0.066,0.203,0.132,0.304,0.198C20.7,19.981,20.989,19.633,21.279,19.286z" data-original="#231F20" class="active-path" data-old_color="#231F20" fill="#1B2C39"/>
	<path d="M19.193,51.126c-0.895-0.235-1.79-0.471-2.685-0.706c0.075-0.188,0.149-0.376,0.225-0.564   c0.807,0.439,1.614,0.879,2.422,1.318L19.193,51.126z" data-original="#231F20" class="active-path" data-old_color="#231F20" fill="#1B2C39"/>
	<path d="M23.949,55.625c-0.931-0.159-1.861-0.317-2.792-0.476c-0.022-0.228-0.044-0.457-0.087-0.9   C22.081,54.732,23.015,55.178,23.949,55.625z" data-original="#231F20" class="active-path" data-old_color="#231F20" fill="#1B2C39"/>
	<path d="M18.643,43.658c-0.78-0.151-1.56-0.303-2.34-0.455c0.976-0.58,1.646-0.062,2.305,0.496   C18.608,43.699,18.643,43.658,18.643,43.658z" data-original="#231F20" class="active-path" data-old_color="#231F20" fill="#1B2C39"/>
	<path d="M16.29,39.22c0.936,0.338,1.872,0.676,2.808,1.014C18.162,39.896,17.226,39.558,16.29,39.22z" data-original="#231F20" class="active-path" data-old_color="#231F20" fill="#1B2C39"/>
	<path d="M31.84,23.217c-0.175-1.384,0.367-2.272,1.771-2.566C33.021,21.507,32.431,22.362,31.84,23.217z" data-original="#231F20" class="active-path" data-old_color="#231F20" fill="#1B2C39"/>
</g></g> </svg>
