<svg height="430pt" viewBox="0 -19 430.08 430" width="430pt" xmlns="http://www.w3.org/2000/svg"><path d="m430.078125 157.054688c0 86.714843-70.296875 157.011718-157.011719 157.011718s-157.011718-70.296875-157.011718-157.011718c0-86.71875 70.296874-157.0156255 157.011718-157.0156255s157.011719 70.2968755 157.011719 157.0156255zm0 0" fill="#efefd2"/><path d="m300.375 355.027344h-218.453125v-168.933594c0-16.039062 13-29.039062 29.039063-29.039062h160.367187c16.039063 0 29.042969 13 29.042969 29.039062v168.933594zm0 0" fill="#fc8c29"/><path d="m300.375 361.851562h-218.453125c-3.773437 0-6.828125-3.050781-6.828125-6.824218v-168.933594c0-19.78125 16.089844-35.867188 35.871094-35.867188h160.371094c19.777343 0 35.867187 16.085938 35.867187 35.867188v168.933594c-.003906 3.773437-3.054687 6.824218-6.828125 6.824218zm-211.628906-13.652343h204.800781v-162.105469c0-12.246094-9.96875-22.214844-22.214844-22.214844h-160.367187c-12.25 0-22.21875 9.96875-22.21875 22.214844zm0 0" fill="#4c241d"/><path d="m423.253906 355.027344h-122.878906v-129.707032h63.125c15.359375 0 29.667969 7.691407 37.988281 20.414063l21.765625 33.304687zm0 0" fill="#fff"/><path d="m423.253906 361.851562h-122.878906c-3.773438 0-6.828125-3.050781-6.828125-6.824218v-129.707032c0-3.773437 3.054687-6.828124 6.828125-6.828124h63.125c17.753906 0 34.085938 8.785156 43.699219 23.507812l21.765625 33.304688c.726562 1.109374 1.113281 2.410156 1.113281 3.734374v75.988282c0 3.773437-3.050781 6.824218-6.824219 6.824218zm-116.054687-13.652343h109.226562v-67.125l-20.652343-31.609375c-7.085938-10.84375-19.15625-17.316406-32.273438-17.316406h-56.300781zm0 0" fill="#4c241d"/><path d="m300.375 355.027344h-238.933594v-6.738282c0-15.128906 12.265625-27.394531 27.394532-27.394531h211.539062zm0 0" fill="#9dc1e4"/><path d="m300.375 361.851562h-238.933594c-3.769531 0-6.828125-3.050781-6.828125-6.824218v-6.742188c0-18.867187 15.351563-34.21875 34.21875-34.21875h211.542969c3.773438 0 6.824219 3.054688 6.824219 6.828125v34.132813c0 3.773437-3.050781 6.824218-6.824219 6.824218zm-232.109375-13.652343h225.28125v-20.480469h-204.714844c-11.308593 0-20.519531 9.179688-20.566406 20.480469zm0 0" fill="#4c241d"/><path d="m394.433594 353.320312c0 17.074219-13.839844 30.914063-30.914063 30.914063-17.070312 0-30.914062-13.839844-30.914062-30.914063 0-17.074218 13.84375-30.914062 30.914062-30.914062 17.074219 0 30.914063 13.839844 30.914063 30.914062zm0 0" fill="#6b4f5b"/><g fill="#4c241d"><path d="m363.519531 391.0625c-20.804687 0-37.738281-16.933594-37.738281-37.742188 0-20.804687 16.933594-37.738281 37.738281-37.738281 20.804688 0 37.738281 16.933594 37.738281 37.738281 0 20.804688-16.933593 37.742188-37.738281 37.742188zm0-61.828125c-13.277343 0-24.085937 10.804687-24.085937 24.085937 0 13.277344 10.808594 24.085938 24.085937 24.085938 13.28125 0 24.085938-10.808594 24.085938-24.085938 0-13.28125-10.804688-24.085937-24.085938-24.085937zm0 0"/><path d="m177.492188 232.148438h-170.664063c-3.773437 0-6.828125-3.054688-6.828125-6.828126 0-3.773437 3.054688-6.828124 6.828125-6.828124h170.664063c3.769531 0 6.828124 3.054687 6.828124 6.828124 0 3.773438-3.058593 6.828126-6.828124 6.828126zm0 0"/><path d="m374.6875 353.320312c0 6.167969-5 11.167969-11.167969 11.167969s-11.167969-5-11.167969-11.167969c0-6.167968 5-11.167968 11.167969-11.167968s11.167969 5 11.167969 11.167968zm0 0"/></g><path d="m189.632812 353.320312c0 17.074219-13.839843 30.914063-30.914062 30.914063-17.070312 0-30.910156-13.839844-30.910156-30.914063 0-17.074218 13.839844-30.914062 30.910156-30.914062 17.074219 0 30.914062 13.839844 30.914062 30.914062zm0 0" fill="#6b4f5b"/><path d="m158.71875 391.0625c-20.808594 0-37.738281-16.933594-37.738281-37.742188 0-20.804687 16.929687-37.738281 37.738281-37.738281 20.8125 0 37.742188 16.933594 37.742188 37.738281 0 20.808594-16.929688 37.742188-37.742188 37.742188zm0-61.828125c-13.277344 0-24.085938 10.804687-24.085938 24.085937 0 13.277344 10.808594 24.085938 24.085938 24.085938 13.28125 0 24.085938-10.808594 24.085938-24.085938 0-13.28125-10.804688-24.085937-24.085938-24.085937zm0 0" fill="#4c241d"/><path d="m169.886719 353.320312c0 6.167969-5 11.167969-11.167969 11.167969-6.164062 0-11.164062-5-11.164062-11.167969 0-6.167968 5-11.167968 11.164062-11.167968 6.167969 0 11.167969 5 11.167969 11.167968zm0 0" fill="#4c241d"/><path d="m160.339844 162.820312c0 33.1875-26.902344 60.089844-60.089844 60.089844-33.183594 0-60.085938-26.902344-60.085938-60.089844s26.902344-60.089843 60.085938-60.089843c33.1875 0 60.089844 26.902343 60.089844 60.089843zm0 0" fill="#fff"/><path d="m100.25 229.734375c-36.898438 0-66.914062-30.019531-66.914062-66.914063 0-36.894531 30.015624-66.914062 66.914062-66.914062 36.894531 0 66.917969 30.019531 66.917969 66.914062 0 36.894532-30.023438 66.914063-66.917969 66.914063zm0-120.175781c-29.367188 0-53.261719 23.894531-53.261719 53.261718 0 29.367188 23.894531 53.261719 53.261719 53.261719 29.371094 0 53.261719-23.894531 53.261719-53.261719 0-29.367187-23.890625-53.261718-53.261719-53.261718zm0 0" fill="#4c241d"/><path d="m87.148438 190.554688c-1.390626 0-2.800782-.429688-4.015626-1.316407-3.046874-2.21875-3.714843-6.484375-1.496093-9.53125l13.9375-19.113281v-27.636719c0-3.773437 3.054687-6.828125 6.824219-6.828125 3.773437 0 6.828124 3.054688 6.828124 6.828125v29.863281c0 1.449219-.460937 2.855469-1.3125 4.019532l-15.242187 20.90625c-1.335937 1.835937-3.414063 2.808594-5.523437 2.808594zm0 0" fill="#4c241d"/><path d="m348.160156 245.800781v47.785157h45.949219c3.863281 0 6.28125-4.171876 4.367187-7.523438l-15.941406-27.894531c-4.371094-7.648438-12.503906-12.367188-21.316406-12.367188zm0 0" fill="#c1dbdc"/><path d="m394.105469 300.414062h-45.945313c-3.773437 0-6.828125-3.054687-6.828125-6.828124v-47.785157c0-3.773437 3.054688-6.828125 6.828125-6.828125h13.058594c11.234375 0 21.671875 6.0625 27.242188 15.808594l15.9375 27.898438c2.121093 3.695312 2.113281 8.121093-.03125 11.820312-2.148438 3.703125-5.980469 5.914062-10.261719 5.914062zm-39.117188-13.652343h36.019531l-14.402343-25.210938c-3.148438-5.503906-9.039063-8.925781-15.386719-8.925781h-6.230469zm0 0" fill="#4c241d"/><path d="m136.535156 259.453125h-88.75c-3.769531 0-6.824218-3.054687-6.824218-6.828125s3.054687-6.824219 6.824218-6.824219h88.75c3.769532 0 6.824219 3.050781 6.824219 6.824219s-3.054687 6.828125-6.824219 6.828125zm0 0" fill="#4c241d"/><path d="m102.398438 286.761719h-95.570313c-3.773437 0-6.828125-3.054688-6.828125-6.828125 0-3.773438 3.054688-6.828125 6.828125-6.828125h95.570313c3.773437 0 6.828124 3.054687 6.828124 6.828125 0 3.773437-3.054687 6.828125-6.828124 6.828125zm0 0" fill="#4c241d"/></svg>