<?xml version="1.0"?>
<svg xmlns="http://www.w3.org/2000/svg" height="512px" viewBox="0 -58 423.25163 423" width="512px" class=""><g><path d="m82.28125 73.207031v-32.929687c0-3.773438-3.054688-6.824219-6.828125-6.824219s-6.828125 3.050781-6.828125 6.824219v30.699218l-15.492188 21.261719c-2.226562 3.046875-1.550781 7.3125 1.496094 9.53125 1.210938.890625 2.617188 1.316407 4.011719 1.316407 2.105469 0 4.1875-.972657 5.519531-2.808594l16.808594-23.054688c.851562-1.164062 1.3125-2.570312 1.3125-4.015625zm0 0" data-original="#000000" class="active-path" data-old_color="#000000" fill="#00D5FF"/><path d="m375.832031 126.871094v-40.398438c0-.078125-.042969-.148437-.042969-.226562 0-.015625.003907-.027344.003907-.042969-.027344-.738281-.191407-1.441406-.4375-2.109375-.121094-.324219-.304688-.597656-.472657-.898438-.21875-.394531-.457031-.765624-.746093-1.109374-.226563-.261719-.449219-.492188-.707031-.71875-.367188-.320313-.777344-.578126-1.210938-.816407-.257812-.140625-.484375-.308593-.761719-.414062-.054687-.019531-.09375-.058594-.148437-.078125l-136.753906-49.734375c-1.550782-.558594-3.25-.539063-4.78125.039062l-84.4375 32.441407c-5.082032-35.371094-35.5-62.679688-72.257813-62.679688-40.292969 0-73.078125 32.789062-73.078125 73.082031 0 38.789063 30.410156 70.53125 68.625 72.851563v93.910156c0 2.835938 1.746094 5.375 4.394531 6.382812l154.601563 58.898438c1.207031 1.066406 2.75 1.765625 4.484375 1.765625.238281 0 .441406-.109375.671875-.136719.25.027344.492187.136719.742187.136719 1.148438 0 2.289063-.285156 3.3125-.859375l98.398438-54.664062c10.8125 15.425781 20.839843 27.625 23.1875 30.429687 1.300781 1.554687 3.214843 2.457031 5.242187 2.457031 2.023438 0 3.945313-.898437 5.238282-2.457031 5.566406-6.65625 54.351562-65.992187 54.351562-96.71875.003906-28.683594-20.375-52.695313-47.417969-58.332031zm-143.546875-82.847656 118.648438 43.148437-48.339844 21.972656c-.019531-.007812-.03125-.027343-.054688-.03125l-126.636718-43.425781zm-1.195312 97.625-94.96875-31.65625c5.703125-9.734376 9.191406-20.882813 9.839844-32.800782l10.085937-3.875 128.460937 44.050782zm-101.480469-19.441407 54.710937 18.238281v81.667969l-28.511718-31.855469c-2.441406-2.710937-6.574219-3.039062-9.386719-.746093l-16.714844 13.554687v-80.367187c0-.175781-.085937-.320313-.097656-.492188zm-115.957031-49c0-32.769531 26.660156-59.429687 59.425781-59.429687 32.769531 0 59.425781 26.660156 59.425781 59.429687 0 32.765625-26.65625 59.425781-59.425781 59.425781-32.765625 0-59.425781-26.660156-59.425781-59.425781zm68.628906 72.433594c12.523438-1.582031 24.039062-6.347656 33.773438-13.457031v85.207031c0 2.632813 1.511718 5.035156 3.890624 6.160156 2.367188 1.132813 5.1875.800781 7.234376-.859375l22.792968-18.480468 36.085938 40.3125c1.320312 1.472656 3.179687 2.273437 5.085937 2.273437.820313 0 1.648438-.144531 2.441407-.445313 2.640624-1.015624 4.386718-3.554687 4.386718-6.382812v-94.972656l27.304688 9.101562v135.644532l-143-54.480469v-89.621094zm156.652344 143.730469v-135.574219c.214844-.285156.347656-.632813.523437-.957031l122.722657-55.78125v28.628906c-32.175782.792969-58.121094 27.15625-58.121094 59.519531 0 14.726563 11.226562 36.003907 23.515625 54.925781zm124.726562-22.652344c-16.441406-20.71875-45.945312-61.96875-45.945312-81.511719 0-25.335937 20.613281-45.941406 45.945312-45.941406 25.332032 0 45.941406 20.605469 45.941406 45.941406 0 19.53125-29.507812 60.785157-45.941406 81.511719zm0 0" data-original="#000000" class="active-path" data-old_color="#000000" fill="#00D5FF"/><path d="m363.660156 160.039062c-13.878906 0-25.167968 11.285157-25.167968 25.167969 0 13.878907 11.289062 25.164063 25.167968 25.164063s25.167969-11.285156 25.167969-25.164063c0-13.882812-11.289063-25.167969-25.167969-25.167969zm0 36.679688c-6.347656 0-11.511718-5.167969-11.511718-11.511719 0-6.347656 5.164062-11.515625 11.511718-11.515625s11.511719 5.167969 11.511719 11.515625c0 6.34375-5.164063 11.511719-11.511719 11.511719zm0 0" data-original="#000000" class="active-path" data-old_color="#000000" fill="#00D5FF"/></g> </svg>
