<?xml version="1.0"?>
<svg xmlns="http://www.w3.org/2000/svg" id="Layer_1" enable-background="new 0 0 512 512" height="512px" viewBox="0 0 512 512" width="512px"><g><g clip-rule="evenodd" fill-rule="evenodd"><path d="m256 60c108.248 0 196 87.752 196 196s-87.752 196-196 196-196-87.752-196-196 87.752-196 196-196zm246 196c0-135.862-110.138-246-246-246s-246 110.138-246 246 110.138 246 246 246 246-110.138 246-246z" fill="#8690af" data-original="#8690AF"/><ellipse cx="256" cy="256" fill="#8690af" rx="40" ry="40" transform="matrix(.383 -.924 .924 .383 -78.48 394.546)" data-original="#8690AF"/><path d="m216 256c0-22.091 17.909-40 40-40s40 17.909 40 40-17.909 40-40 40-40-17.909-40-40zm40-84.115c-42.312 0-84.178 3.118-125.322 9.185-19.393 32.364-25.411 71.276-16.923 107.968 46.923 16.99 83.097 56.425 95.552 105.335 30.072 10.144 63.315 10.144 93.386 0 12.456-48.91 48.629-88.344 95.552-105.335 8.488-36.692 2.47-75.604-16.923-107.968-41.144-6.067-83.01-9.185-125.322-9.185z" fill="#fff" data-original="#FFF"/><path d="m452 256c0-22.37-3.748-43.865-10.649-63.891l-.011.001c-19.81-4.377-39.827-8.063-60.018-11.04 19.393 32.364 25.411 71.276 16.923 107.968 16.154-5.849 33.582-9.038 51.755-9.038l.535.007.01.002c.96-7.869 1.455-15.881 1.455-24.009z" fill="#8690af" data-original="#8690AF"/><path d="m302.693 394.373c-30.072 10.144-63.315 10.144-93.386 0 3.064 12.033 4.693 24.64 4.693 37.627 0 5.167-.26 10.274-.764 15.308v.014c13.765 3.062 28.076 4.678 42.764 4.678 14.689 0 29.001-1.616 42.768-4.68l-.004-.013c-.503-5.035-.764-10.141-.764-15.308 0-12.986 1.629-25.593 4.693-37.626z" fill="#8690af" data-original="#8690AF"/><path d="m113.754 289.038c-8.488-36.692-2.47-75.604 16.923-107.968-20.191 2.977-40.207 6.663-60.018 11.04l-.012.003c-6.9 20.024-10.647 41.518-10.647 63.887 0 8.151.497 16.186 1.464 24.076l.536-.076c18.173 0 35.601 3.189 51.754 9.038z" fill="#8690af" data-original="#8690AF"/></g><path d="m437.02 74.98c-48.353-48.352-112.64-74.98-181.02-74.98-52.03 0-102.125 15.535-144.868 44.924-4.551 3.129-5.703 9.355-2.574 13.906 3.13 4.55 9.354 5.702 13.906 2.574 39.394-27.087 85.57-41.404 133.536-41.404 130.131 0 236 105.869 236 236s-105.869 236-236 236-236-105.869-236-236c0-47.972 14.316-94.146 41.399-133.529 3.129-4.551 1.977-10.777-2.573-13.906-4.551-3.128-10.776-1.978-13.906 2.573-29.387 42.733-44.92 92.826-44.92 144.862 0 68.38 26.628 132.667 74.98 181.02 48.353 48.352 112.64 74.98 181.02 74.98s132.667-26.628 181.02-74.98c48.352-48.353 74.98-112.64 74.98-181.02s-26.628-132.667-74.98-181.02z" data-original="#000000" class="active-path" style="fill:#000000"/><path d="m256 462c113.589 0 206-92.411 206-206 0-23.603-4.002-46.286-11.343-67.421-.021-.055-.037-.112-.059-.166-28.035-80.491-104.674-138.413-194.598-138.413-113.588 0-206 92.411-206 206s92.412 206 206 206zm186-206c0 4.785-.182 9.529-.539 14.224-10.497.548-20.73 2.107-30.61 4.569 3.246-27.383-.838-55.476-11.696-80.734 11.53 1.97 23.016 4.178 34.446 6.622 5.457 17.482 8.399 36.063 8.399 55.319zm-66.916-65.702c15.201 27.568 20.392 60.364 14.48 91.404-45.646 18.421-81.04 57.054-95.037 104.753-25.027 7.367-52.029 7.367-77.055 0-13.996-47.698-49.39-86.332-95.036-104.752-5.912-31.037-.718-63.84 14.479-91.404 39.435-5.58 79.283-8.414 119.085-8.414 39.801 0 79.648 2.833 119.084 8.413zm-273.936 84.495c-9.88-2.461-20.112-4.021-30.609-4.569-.357-4.695-.539-9.439-.539-14.224 0-19.256 2.942-37.837 8.399-55.319 11.43-2.444 22.915-4.652 34.446-6.622-10.856 25.257-14.942 53.353-11.697 80.734zm-27.938 15.648c73.079 5.734 130.79 67.032 130.79 141.559 0 .859-.016 1.721-.032 2.583-66.551-19.422-117.781-75.114-130.758-144.142zm150.622 148.767c.106-2.407.168-4.815.168-7.209 0-8.041-.598-15.944-1.735-23.674 11.079 2.435 22.405 3.658 33.735 3.658 11.327 0 22.655-1.223 33.735-3.658-1.137 7.73-1.735 15.633-1.735 23.675 0 2.394.062 4.802.168 7.209-10.452 1.829-21.199 2.791-32.168 2.791-10.968 0-21.715-.962-32.168-2.792zm84.2-4.625c-.016-.862-.032-1.725-.032-2.583 0-74.526 57.712-135.824 130.791-141.558-12.978 69.027-64.208 124.719-130.759 144.141zm-52.032-364.583c74.918 0 139.624 44.528 169.066 108.504-55.602-11.02-112.381-16.618-169.067-16.618s-113.466 5.599-169.066 16.619c29.443-63.978 94.149-108.505 169.067-108.505z" data-original="#000000" class="active-path" style="fill:#000000"/><path d="m206 256c0 27.57 22.43 50 50 50s50-22.43 50-50-22.43-50-50-50-50 22.43-50 50zm50-30c16.542 0 30 13.458 30 30s-13.458 30-30 30-30-13.458-30-30 13.458-30 30-30z" data-original="#000000" class="active-path" style="fill:#000000"/><path d="m82.048 92.053c2.561 0 5.122-.978 7.075-2.931 3.905-3.905 3.905-10.237 0-14.142s-10.236-3.905-14.142 0l-.005.005c-3.905 3.905-3.903 10.234.002 14.139 1.952 1.954 4.511 2.929 7.07 2.929z" data-original="#000000" class="active-path" style="fill:#000000"/></g> </svg>
