<?xml version="1.0"?>
<svg xmlns="http://www.w3.org/2000/svg" xmlns:xlink="http://www.w3.org/1999/xlink" version="1.1" id="Capa_1" x="0px" y="0px" viewBox="0 0 58 58" style="enable-background:new 0 0 58 58;" xml:space="preserve" width="512px" height="512px"><g><g>
	<polygon style="fill:#A98258;" points="48,0 10,0 0,16 0,58 58,58 58,16  " data-original="#A98258"/>
	<path style="fill:#5B4631;" d="M35,27H23c-1.1,0-2-0.9-2-2v0c0-1.1,0.9-2,2-2h12c1.1,0,2,0.9,2,2v0C37,26.1,36.1,27,35,27z" data-original="#5B4631"/>
	<g>
		<path style="fill:#E8D5B2;" d="M37,51H21c-0.552,0-1,0.447-1,1s0.448,1,1,1h16c0.552,0,1-0.447,1-1S37.552,51,37,51z" data-original="#E8D5B2"/>
		<path style="fill:#E8D5B2;" d="M21,43c0.256,0,0.512-0.098,0.707-0.293L23,41.414V48c0,0.553,0.448,1,1,1s1-0.447,1-1v-6.586    l1.293,1.293C26.488,42.902,26.744,43,27,43s0.512-0.098,0.707-0.293c0.391-0.391,0.391-1.023,0-1.414l-2.999-2.999    c-0.092-0.093-0.203-0.166-0.326-0.217c-0.244-0.101-0.52-0.101-0.764,0c-0.123,0.051-0.233,0.124-0.326,0.217l-2.999,2.999    c-0.391,0.391-0.391,1.023,0,1.414C20.488,42.902,20.744,43,21,43z" data-original="#E8D5B2"/>
		<path style="fill:#E8D5B2;" d="M31,43c0.256,0,0.512-0.098,0.707-0.293L33,41.414V48c0,0.553,0.448,1,1,1s1-0.447,1-1v-6.586    l1.293,1.293C36.488,42.902,36.744,43,37,43s0.512-0.098,0.707-0.293c0.391-0.391,0.391-1.023,0-1.414l-2.999-2.999    c-0.092-0.093-0.203-0.166-0.326-0.217c-0.244-0.101-0.52-0.101-0.764,0c-0.123,0.051-0.233,0.124-0.326,0.217l-2.999,2.999    c-0.391,0.391-0.391,1.023,0,1.414C30.488,42.902,30.744,43,31,43z" data-original="#E8D5B2"/>
	</g>
	<polygon style="fill:#DAAE86;" points="10,0 0,16 58,16 48,0  " data-original="#DAAE86"/>
	<rect x="28" style="fill:#F4D5BD;" width="2" height="16" data-original="#F4D5BD" class="active-path"/>
</g></g> </svg>
